<?xml version="1.0" encoding="UTF-8" standalone="no"?>
<!-- Created with Inkscape (http://www.inkscape.org/) -->
<svg
   xmlns:dc="http://purl.org/dc/elements/1.1/"
   xmlns:cc="http://creativecommons.org/ns#"
   xmlns:rdf="http://www.w3.org/1999/02/22-rdf-syntax-ns#"
   xmlns:svg="http://www.w3.org/2000/svg"
   xmlns="http://www.w3.org/2000/svg"
   xmlns:sodipodi="http://sodipodi.sourceforge.net/DTD/sodipodi-0.dtd"
   xmlns:inkscape="http://www.inkscape.org/namespaces/inkscape"
   width="90"
   height="90"
   id="svg2"
   sodipodi:version="0.32"
   inkscape:version="0.46"
   sodipodi:docname="weak-2-coloring.svg"
   version="1.0"
   inkscape:output_extension="org.inkscape.output.svg.inkscape">
  <defs
     id="defs4" />
  <sodipodi:namedview
     id="base"
     pagecolor="#ffffff"
     bordercolor="#666666"
     borderopacity="1.0"
     gridtolerance="10000"
     guidetolerance="10"
     objecttolerance="10"
     inkscape:pageopacity="0.0"
     inkscape:pageshadow="2"
     inkscape:zoom="4.0000001"
     inkscape:cx="36.870045"
     inkscape:cy="44.212173"
     inkscape:document-units="px"
     inkscape:current-layer="layer1"
     showgrid="true"
     inkscape:window-width="1280"
     inkscape:window-height="966"
     inkscape:window-x="0"
     inkscape:window-y="0">
    <inkscape:grid
       type="xygrid"
       id="grid2385"
       visible="true"
       enabled="true"
       spacingx="5px"
       spacingy="5px" />
  </sodipodi:namedview>
  <metadata
     id="metadata7">
    <rdf:RDF>
      <cc:Work
         rdf:about="">
        <dc:format>image/svg+xml</dc:format>
        <dc:type
           rdf:resource="http://purl.org/dc/dcmitype/StillImage" />
      </cc:Work>
    </rdf:RDF>
  </metadata>
  <g
     inkscape:groupmode="layer"
     id="layer3"
     inkscape:label="Non-tree edges"
     style="display:inline"
     transform="translate(-49.5,-389.5)" />
  <g
     inkscape:groupmode="layer"
     id="layer2"
     inkscape:label="Edges"
     style="display:inline"
     transform="translate(-49.5,-389.5)">
    <path
       sodipodi:nodetypes="ccccc"
       id="path3378"
       d="M 97,399 L 62,409 L 82,429 L 132,419 L 97,399 z"
       style="fill:none;fill-rule:evenodd;stroke:#000000;stroke-width:1px;stroke-linecap:butt;stroke-linejoin:miter;stroke-opacity:1" />
    <path
       sodipodi:nodetypes="cc"
       id="path3380"
       d="M 82,429 L 107,439"
       style="fill:none;fill-rule:evenodd;stroke:#000000;stroke-width:1px;stroke-linecap:butt;stroke-linejoin:miter;stroke-opacity:1" />
    <path
       id="path3382"
       d="M 62,409 L 57,449"
       style="fill:none;fill-rule:evenodd;stroke:#000000;stroke-width:1px;stroke-linecap:butt;stroke-linejoin:miter;stroke-opacity:1" />
    <path
       sodipodi:nodetypes="cccc"
       id="path3384"
       d="M 82,429 L 57,449 L 102,469 L 107,439"
       style="fill:none;fill-rule:evenodd;stroke:#000000;stroke-width:1px;stroke-linecap:butt;stroke-linejoin:miter;stroke-opacity:1" />
    <path
       sodipodi:nodetypes="cc"
       id="path3386"
       d="M 132,419 L 102,469"
       style="fill:none;fill-rule:evenodd;stroke:#000000;stroke-width:1px;stroke-linecap:butt;stroke-linejoin:miter;stroke-opacity:1" />
    <path
       sodipodi:nodetypes="cc"
       id="path3388"
       d="M 82,429 L 102,469"
       style="fill:none;fill-rule:evenodd;stroke:#000000;stroke-width:1px;stroke-linecap:butt;stroke-linejoin:miter;stroke-opacity:1" />
  </g>
  <g
     inkscape:label="Nodes"
     inkscape:groupmode="layer"
     id="layer1"
     style="opacity:1;display:inline"
     transform="translate(-49.5,-389.5)">
    <text
       xml:space="preserve"
       style="font-size:10px;font-style:normal;font-weight:normal;fill:#000000;fill-opacity:1;stroke:none;stroke-width:1px;stroke-linecap:butt;stroke-linejoin:miter;stroke-opacity:1;font-family:Bitstream Vera Sans"
       x="9.5"
       y="18.5"
       id="text3314"><tspan
         sodipodi:role="line"
         id="tspan3316"
         x="9.5"
         y="18.5" /></text>
    <path
       transform="translate(12,359)"
       sodipodi:type="arc"
       style="fill:#ff0000;stroke:#000000"
       id="path3392"
       sodipodi:cx="50"
       sodipodi:cy="50"
       sodipodi:rx="5"
       sodipodi:ry="5"
       d="M 55,50 A 5,5 0 1 1 45,50 A 5,5 0 1 1 55,50 z" />
    <path
       d="M 55,50 A 5,5 0 1 1 45,50 A 5,5 0 1 1 55,50 z"
       sodipodi:ry="5"
       sodipodi:rx="5"
       sodipodi:cy="50"
       sodipodi:cx="50"
       id="path3394"
       style="fill:#ff0000;stroke:#000000"
       sodipodi:type="arc"
       transform="translate(82,369)" />
    <path
       transform="translate(57,389)"
       sodipodi:type="arc"
       style="fill:#ff0000;stroke:#000000"
       id="path3400"
       sodipodi:cx="50"
       sodipodi:cy="50"
       sodipodi:rx="5"
       sodipodi:ry="5"
       d="M 55,50 A 5,5 0 1 1 45,50 A 5,5 0 1 1 55,50 z" />
    <path
       transform="translate(47,349)"
       d="M 55,50 A 5,5 0 1 1 45,50 A 5,5 0 1 1 55,50 z"
       sodipodi:ry="5"
       sodipodi:rx="5"
       sodipodi:cy="50"
       sodipodi:cx="50"
       id="path3390"
       style="fill:#4338ca;stroke:#000000"
       sodipodi:type="arc" />
    <path
       transform="translate(7,399)"
       sodipodi:type="arc"
       style="fill:#4338ca;stroke:#000000"
       id="path3396"
       sodipodi:cx="50"
       sodipodi:cy="50"
       sodipodi:rx="5"
       sodipodi:ry="5"
       d="M 55,50 A 5,5 0 1 1 45,50 A 5,5 0 1 1 55,50 z" />
    <path
       d="M 55,50 A 5,5 0 1 1 45,50 A 5,5 0 1 1 55,50 z"
       sodipodi:ry="5"
       sodipodi:rx="5"
       sodipodi:cy="50"
       sodipodi:cx="50"
       id="path3398"
       style="fill:#4338ca;stroke:#000000"
       sodipodi:type="arc"
       transform="translate(32,379)" />
    <path
       d="M 55,50 A 5,5 0 1 1 45,50 A 5,5 0 1 1 55,50 z"
       sodipodi:ry="5"
       sodipodi:rx="5"
       sodipodi:cy="50"
       sodipodi:cx="50"
       id="path3402"
       style="fill:#4338ca;stroke:#000000"
       sodipodi:type="arc"
       transform="translate(52,419)" />
  </g>
</svg>
